# Made in Blockbench 4.11.2
mtllib Tree.mtl

o pyramid
v 0 9.625 0
v 1.875 0 1.875
v 1.875 0 -1.875
v -1.875 0 1.875
v -1.875 0 -1.875
vt 1.875 -0.875
vt 1.875 1
vt 0 1
vt 0 -0.875
vt 0 -0.4169687500000001
vt 1.875 -0.4169687500000001
vt 0.9375 1
vt 0 -0.4169687500000001
vt 1.875 -0.4169687500000001
vt 0.9375 1
vt 0 -0.4169687500000001
vt 1.875 -0.4169687500000001
vt 0.9375 1
vt 0 -0.4169687500000001
vt 1.875 -0.4169687500000001
vt 0.9375 1
vn 0 -1 0
vn 0.9815489870809552 0.1912108416391471 0
vn 0 0.1912108416391471 0.9815489870809552
vn 0 0.1912108416391471 -0.9815489870809552
vn -0.9815489870809552 0.1912108416391471 0
usemtl none
f 3/1/1 2/2/1 4/3/1 5/4/1
f 2/5/2 3/6/2 1/7/2
f 4/8/3 2/9/3 1/10/3
f 3/11/4 5/12/4 1/13/4
f 5/14/5 4/15/5 1/16/5
o pyramid
v 0 9.625 0
v 1.5 4.25 1.5
v 1.5 4.25 -1.5
v -1.5 4.25 1.5
v -1.5 4.25 -1.5
vt 1.25 -0.25
vt 1.25 1
vt 0 1
vt 0 -0.25
vt 0 -0.02507499999999996
vt 1.25 -0.02507499999999996
vt 0.625 1
vt 0 -0.02507499999999996
vt 1.25 -0.02507499999999996
vt 0.625 1
vt 0 -0.02507499999999996
vt 1.25 -0.02507499999999996
vt 0.625 1
vt 0 -0.02507499999999996
vt 1.25 -0.02507499999999996
vt 0.625 1
vn 0 -1 0
vn 0.9631963013333045 0.2687989678139454 0
vn 0 0.2687989678139454 0.9631963013333045
vn 0 0.2687989678139454 -0.9631963013333045
vn -0.9631963013333045 0.2687989678139454 0
usemtl none
f 8/17/6 7/18/6 9/19/6 10/20/6
f 7/21/7 8/22/7 6/23/7
f 9/24/8 7/25/8 6/26/8
f 8/27/9 10/28/9 6/29/9
f 10/30/10 9/31/10 6/32/10